#!OML:ASF E:/inclinewalkrobotboard/Project1/Captureday1/Session1/subject1.ASF
:FULLY-SPECIFIED
:DEGREES
176
root 0 0 0 1.2582385880965465 -3.5918420740444095 1.8996549347581304
lowerback 12.042869581280982 0.8482874902004796 -0.10761972203362513
upperback -4.409499750248235 1.0653414494880136 -0.6024390895152
thorax -11.573040712660507 0.48726100424491997 -0.802759659214114
lowerneck -5.961895099397605 1.7283160191313385 4.699911297183294
upperneck 18.393739222930343 3.2871544992128507 -8.468673979012397
head 6.73154854161227 1.2127583057687485 -3.252909659741694
rclavicle -3.766234888323872E-16 -2.1120909126597437E-15
rhumerus 20.789738335020353 14.833351110225005 -47.29465508487763
rradius 72.87520896788337
rwrist 27.4182299813682
rhand -34.558115727260116 -57.651941546788635
rfingers 7.12502000000002
rthumb -7.751616034009258 -87.60827228777082
lclavicle -2.2025572335369787E-15 4.1931433126476887E-16
lhumerus 21.890134377955462 -13.05818429148876 44.4509030660258
lradius 70.73869143625623
lwrist -22.502770275333454
lhand -45.09590407223272 -70.84222906787565
lfingers 7.125020000000016
lthumb -17.857509675285844 -41.89915772649202
rfemur -25.61540784808031 -2.3710510113479915 16.876874540056143
rtibia 54.52062856488433
rfoot -31.3384423214601 -17.852970509469657
rtoes -19.033867493713466
lfemur -27.98926152009775 2.8321265952408745 -18.34206407694108
ltibia 54.785161306335496
lfoot -33.218365842144 -3.532415632004448
ltoes -20.65725310840432
177
root 0 0 0 1.2581836472130474 -3.5918125200437356 1.8996102170853044
lowerback 12.042794673149615 0.8483002522125827 -0.10760742903030218
upperback -4.409497595287416 1.065357949677821 -0.6024245827577778
thorax -11.572997024458978 0.48726931961514564 -0.8027517169769232
lowerneck -5.9618368488644 1.7283512639094474 4.6999726123164915
upperneck 18.39380116013664 3.2872077785071356 -8.468762830967428
head 6.7315572166705975 1.2127781376914282 -3.252940214460039
rclavicle -3.7779184960595514E-16 -2.112474217649612E-15
rhumerus 20.789207545860407 14.832611745699088 -47.29414304516773
rradius 72.87481062538502
rwrist 27.41878576831877
rhand -34.55815223224024 -57.65215264320108
rfingers 7.12502000000002
rthumb -7.751659404660002 -87.6084148704557
lclavicle -2.2030911324342637E-15 4.191252478037585E-16
lhumerus 21.890047437656918 -13.057910684340749 44.45077644656695
lradius 70.73856751181887
lwrist -22.502931376838752
lhand -45.095926761393144 -70.84257496809225
lfingers 7.125020000000016
lthumb -17.85753457173609 -41.899531315784444
rfemur -25.613865490328145 -2.3712713397437053 16.876728185911865
rtibia 54.52158849522238
rfoot -31.337308185180095 -17.85164534098235
rtoes -19.036064751250134
lfemur -27.98741879038243 2.8319863628184008 -18.3421907218654
ltibia 54.78547999810868
lfoot -33.21664375766859 -3.5341846513801674
ltoes -20.65906435927896
178
root 0 0 0 1.2576522868112852 -3.5911865146022706 1.89955139603421
lowerback 12.042963957043352 0.8481602984776158 -0.10757667445736063
upperback -4.409418734356745 1.0652192070232966 -0.6023720957807307
thorax -11.573016018635265 0.4871862518887369 -0.8027394925767819
lowerneck -5.962159539274418 1.7281773212323122 4.699926723217864
upperneck 18.393738612125432 3.286944973917608 -8.468621953902831
head 6.731605897612749 1.212661132019635 -3.2529309579009205
rclavicle -3.86744811258474E-16 -2.0995611983605245E-15
rhumerus 20.78740492138163 14.829757951429015 -47.29462671563617
rradius 72.8755843794712
rwrist 27.41851348515749
rhand -34.55933006610131 -57.651827512946035
rfingers 7.12502000000002
rthumb -7.752680934809833 -87.60701414853872
lclavicle -2.236372439454573E-15 4.301239009615636E-16
lhumerus 21.89075090894896 -13.06119264378558 44.452461416210575
lradius 70.74027307028712
lwrist -22.50047586325158
lhand -45.0954651602563 -70.83703361445845
lfingers 7.125020000000016
lthumb -17.85693522865871 -41.89379854547062
rfemur -25.614695735273465 -2.375794306361543 16.878744264303855
rtibia 54.52893699984583
rfoot -31.331959593853906 -17.85005559113707
rtoes -19.015796284314977
lfemur -27.994631431363203 2.836546654503526 -18.347624693549477
ltibia 54.797347005735155
lfoot -33.21045260374578 -3.536241092375965
ltoes -20.63915133299447
179
root 0 0 0 1.2581908919576676 -3.5916714688634377 1.8997678381223237
lowerback 12.042906071447076 0.8482634322170136 -0.10767080990739764
upperback -4.409474869030408 1.0653031268348974 -0.6024607500875746
thorax -11.573037161910573 0.4872424922822455 -0.8027444590401511
lowerneck -5.961946886325353 1.7282882638238337 4.699911310742012
upperneck 18.393728472415173 3.287115055959881 -8.468643794066933
head 6.731555989438777 1.2127447092273953 -3.2529046533897823
rclavicle -3.765700547932638E-16 -2.1118516156301657E-15
rhumerus 20.78982907318231 14.833598829517731 -47.29488999504775
rradius 72.87517601987692
rwrist 27.418017737875257
rhand -34.55805637239059 -57.65181155612615
rfingers 7.12502000000002
rthumb -7.751579697865397 -87.6080887572843
lclavicle -2.200947150914813E-15 4.1760674691555286E-16
lhumerus 21.889849195178627 -13.057968323171089 44.451079686160185
lradius 70.73839002603165
lwrist -22.50272270856957
lhand -45.09578085197299 -70.84173694041655
lfingers 7.125020000000016
lthumb -17.857406837707394 -41.89855927563299
rfemur -25.61660609794248 -2.3710530375226453 16.87654325106875
rtibia 54.52146275614511
rfoot -31.33698468835271 -17.853730703027104
rtoes -19.02984126771074
lfemur -27.991116758685475 2.8336569931653184 -18.34409509935185
ltibia 54.789757513150995
lfoot -33.217601334670086 -3.5332689383092646
ltoes -20.650905066937312
180
root 0 0 0 1.2582382158126868 -3.5918456515799853 1.8996524450002394
lowerback 12.04286730285662 0.8482883628864859 -0.10761906362065876
upperback -4.409500034561099 1.0653426281026075 -0.6024385430356308
thorax -11.573039698898214 0.48726159374055017 -0.8027596377215303
lowerneck -5.961892594909106 1.728317108398217 4.699912594362648
upperneck 18.393740257933487 3.287156127294553 -8.46867651011973
head 6.731548379757499 1.21275889810908 -3.2529104783745826
rclavicle -3.7662190097109384E-16 -2.1120942751923783E-15
rhumerus 20.789738311039308 14.833349796837469 -47.29465162775067
rradius 72.87520899649269
rwrist 27.418233112483307
rhand -34.55811629179119 -57.65194503287686
rfingers 7.12502000000002
rthumb -7.751616571176864 -87.60827657780682
lclavicle -2.2025588556520837E-15 4.1930928076801677E-16
lhumerus 21.89013600846205 -13.05818292330834 44.450900078622254
lradius 70.73869235126718
lwrist -22.50277231630642
lhand -45.09590415616231 -70.84223191415352
lfingers 7.125020000000016
lthumb -17.85750973012115 -41.89916168626229
rfemur -25.615360972636367 -2.3710554060119557 16.87687433932328
rtibia 54.520641251388994
rfoot -31.338431335035615 -17.85294317268005
rtoes -19.033944260398773
lfemur -27.989232424129547 2.8321119496504754 -18.342048745437168
ltibia 54.785121914121284
lfoot -33.21835377138358 -3.5324269146697196
ltoes -20.657318328801423
181
root 0 0 0 1.2581828476393215 -3.591813080121369 1.8996095464386094
lowerback 12.042793627951795 0.8483005853813561 -0.10760737448633872
upperback -4.409497638639362 1.0653583623984035 -0.6024244282522447
thorax -11.572996497808958 0.48726952519098193 -0.8027516446629948
lowerneck -5.9618357703778315 1.7283517360413458 4.699973495723274
upperneck 18.393801689341295 3.287208472214603 -8.468764219048628
head 6.731557171757709 1.212778388529871 -3.252940719985216
rclavicle -3.7779445151988116E-16 -2.1124784980282767E-15
rhumerus 20.789202123858004 14.832603272641057 -47.29413634323437
rradius 72.8748064583405
rwrist 27.418792883532078
rhand -34.55815249658311 -57.65215519910443
rfingers 7.12502000000002
rthumb -7.751659734367349 -87.60841743424594
lclavicle -2.2030933301427825E-15 4.191211304481717E-16
lhumerus 21.890046539830635 -13.057905823108939 44.45077365081305
lradius 70.73856537101165
lwrist -22.50293493757752
lhand -45.09592648801515 -70.84257972095689
lfingers 7.125020000000016
lthumb -17.85753432090819 -41.89953655041796
rfemur -25.613842414192632 -2.3712746782915346 16.87672597842222
rtibia 54.52160263280437
rfoot -31.337289609885488 -17.851630624366393
rtoes -19.03609024753717
lfemur -27.987402941843765 2.8319855967869323 -18.3421938838558
ltibia 54.785486556997576
lfoot -33.21662993912707 -3.5342024113469863
ltoes -20.65907881773574
182
root 0 0 0 1.2629136999831787 -3.521206563322967 1.9529845511505304
lowerback 12.033287313370383 0.8361228085904491 -0.1557905063768492
upperback -4.3811375185440715 1.0450831175672528 -0.6066936761112548
thorax -11.537695323565199 0.47722779696228335 -0.7790217492088813
lowerneck -6.044104926996212 1.693698208612074 4.662561888758003
upperneck 18.40172387851033 3.236860769215691 -8.399791217473943
head 6.749334710983469 1.1932544645872047 -3.2290760058977366
rclavicle -5.697404345724971E-16 -2.13939312575129E-15
rhumerus 20.523811468378533 14.673919417209897 -47.48359486128582
rradius 72.62361222953824
rwrist 27.26563535896588
rhand -34.381150958164106 -57.13308871598789
rfingers 7.125020000000018
rthumb -7.581320663744677 -87.00794152508001
lclavicle -2.084574372417584E-15 3.557151567270501E-17
lhumerus 21.626511501504943 -13.041899716374145 44.67812014621367
lradius 70.53364917336332
lwrist -22.36920882546854
lhand -44.94406367971022 -70.1821416742457
lfingers 7.125020000000014
lthumb -17.716434956017554 -41.16876207909647
rfemur -25.84590956796051 -2.286115374130409 16.742597398036402
rtibia 54.40234160409506
rfoot -30.872618913948372 -17.872270324480112
rtoes -18.808978837137943
lfemur -27.823228228502813 2.8258295975613796 -18.418596822470345
ltibia 54.499462953922425
lfoot -33.12705029929221 -3.497977242188742
ltoes -20.38935531633724
183
root 0 0 0 1.265462965616908 -3.4949298445369616 1.9544006946931165
lowerback 12.047571182067374 0.8268111705946368 -0.15583974101604758
upperback -4.37815800997737 1.0336123431733704 -0.6042109112137585
thorax -11.542743423015963 0.4716347188990468 -0.7769909069232073
lowerneck -6.072440719514247 1.6818398452287784 4.6400212136064685
upperneck 18.390501659795667 3.2190985558246252 -8.366012854133773
head 6.751181213026084 1.1864488894553755 -3.2165754974414327
rclavicle -1.0610819632114471E-15 -2.1111240337321715E-15
rhumerus 20.429182061014338 14.618135255359187 -47.56440312697947
rradius 72.54670754271305
rwrist 27.1976581308532
rhand -34.359905922795804 -56.94107905089501
rfingers 7.125020000000017
rthumb -7.561432543867735 -86.79751341417963
lclavicle -2.1346549149904776E-15 1.2968001899322728E-16
lhumerus 21.493203052552552 -13.023746125251547 44.83364626615921
lradius 70.40353075453145
lwrist -22.276493222829096
lhand -44.96527975192819 -70.13154051993351
lfingers 7.1250200000000135
lthumb -17.73779538754767 -41.074325306781915
rfemur -25.9566982019751 -2.322762866912167 16.861478226520063
rtibia 54.443675235400036
rfoot -31.055646721954183 -17.813561230308224
rtoes -18.545662104097605
lfemur -27.704674609646652 2.807647153233067 -18.354249572060272
ltibia 54.51861004562205
lfoot -33.09768208664888 -3.494245947973085
ltoes -20.621849334443013
